<?xml version="1.0" encoding="utf-8"?>
<!-- Generator: Adobe Illustrator 24.0.0, SVG Export Plug-In . SVG Version: 6.00 Build 0)  -->
<svg version="1.1" id="Layer_1" xmlns="http://www.w3.org/2000/svg" xmlns:xlink="http://www.w3.org/1999/xlink" x="0px" y="0px"
	 width="410.7px" height="400px" viewBox="0 0 410.7 400" style="enable-background:new 0 0 410.7 400;" xml:space="preserve">
<style type="text/css">
	.st0{fill:#240038;}
	.st1{fill:#FFFFFF;}
	.st2{fill:#47158C;}
	.st3{fill:#391170;}
	.st4{opacity:0.4;}
	.st5{fill:#4E3375;}
</style>
<g>
	<g>
		<path class="st0" d="M211,130.3c-1.4,0-2.8-0.9-3.3-2.3c-0.4-1.2-7.5-20-11.6-42.2c-3.2-0.3-6.5-0.7-9.7-1.4
			c-20.9-4-43.2-14.9-66.2-32.4c-1.5-1.2-1.8-3.4-0.7-4.9c1.2-1.5,3.4-1.8,4.9-0.7c24.7,18.8,48.9,29.7,70.5,32.1
			c-1.3-8.9-2-18.1-1.6-26.7c1.2-22.1,10-40.6,23-48.1c8.8-5.1,18.9-5.1,29.1,0.1c12.5,6.3,19.7,17.9,19.6,31.6
			c-0.1,17.7-11.9,34.9-30.1,43.8c-9.3,4.6-19.8,6.9-31.2,6.9c-0.1,0-0.3,0-0.4,0c4.1,21.2,10.8,39.1,10.9,39.4
			c0.7,1.8-0.2,3.8-2.1,4.5C211.9,130.3,211.5,130.3,211,130.3z M202.2,79.2c10.8,0.3,20.8-1.7,29.7-6.1
			c15.8-7.8,26.1-22.5,26.1-37.6c0.1-11.2-5.5-20.2-15.8-25.3C234.3,6.1,226.7,6,220,9.9c-11,6.4-18.5,22.6-19.5,42.4
			C200,60.8,200.8,70.1,202.2,79.2z"/>
	</g>
	<g>
		<path class="st1" d="M117.8,107.9c0,29.9-63.8,29.9-63.8,0C54,78,117.8,78,117.8,107.9z"/>
		<path class="st1" d="M356.7,107.9c0,29.9-63.8,29.9-63.8,0C292.9,78,356.7,78,356.7,107.9z"/>
	</g>
	<path class="st0" d="M223.7,125.9c-0.4,24.1-36.3,24.1-36.7,0C187.4,101.8,223.3,101.8,223.7,125.9z"/>
	<path class="st2" d="M410.7,258.5c-1.1,53.3-10.7,172.6-92.1,133.8c-5.6-3-10.4-6.8-13.6-11.4c-29.6-73.4,30.3-115-99.7-118.8
		c-15.8-1.9-89.9,4-89,38.3c-3.1,25.7,5,78.9-24.3,92.3c-15.4,8.4-37,9.6-50.6,1.8C9.4,370.8,5.5,318.4,1,281.6
		c-4-63.9,1.9-168.1,77-179.2c49.4-9.6,79.5,21.4,127.3,21.3c34,1.3,57-16.2,88.6-21.4C388.7,84.8,411.9,183.3,410.7,258.5z"/>
	<g>
		<path class="st3" d="M410.7,258.5c-1.2,53.2-10.6,172.7-92.1,133.8C297.9,343,357.3,256.9,410.7,258.5z"/>
		<path class="st3" d="M91.9,392.7C11,430.5,2.1,311.9,0,258.5C53.5,256.8,113,343.5,91.9,392.7z"/>
	</g>
	<g class="st4">
		<path class="st5" d="M117.5,294c-0.4,5.4-1,10.7-1.7,15.7C116.1,303.7,115.8,299.3,117.5,294z"/>
	</g>
	<g>
		<path class="st1" d="M308.7,258.5c-0.7,41.9-63,41.9-63.8,0C245.7,216.6,308,216.6,308.7,258.5z"/>
		<path class="st1" d="M165.7,258.5c-0.7,41.9-63,41.9-63.8,0C102.7,216.6,165,216.6,165.7,258.5z"/>
	</g>
	<path class="st0" d="M240.1,165.2l-69.5,0c-8.5,0.1-8.7,8.8-8.3,15.2c0,4.6,3.7,8.3,8.3,8.3l69.5,0c8.5-0.1,8.7-8.8,8.3-15.2
		C248.4,168.9,244.7,165.2,240.1,165.2z"/>
	<path class="st1" d="M221.7,232.2c-0.4,21.5-32.3,21.5-32.7,0C189.4,210.7,221.3,210.7,221.7,232.2z"/>
	<g>
		<g>
			<g>
				<path class="st0" d="M350.3,159.8c-0.4,22.1-33.3,22.1-33.7,0C317,137.7,349.9,137.7,350.3,159.8z"/>
				<path class="st0" d="M350.3,233.4c-0.4,22.1-33.3,22.1-33.7,0C317,211.3,349.9,211.3,350.3,233.4z"/>
			</g>
			<g>
				<path class="st0" d="M370.3,213.5c-22.1-0.4-22.1-33.3,0-33.7C392.4,180.2,392.4,213.1,370.3,213.5z"/>
				<path class="st0" d="M296.7,213.5c-22.1-0.4-22.1-33.3,0-33.7C318.8,180.2,318.8,213.1,296.7,213.5z"/>
			</g>
		</g>
	</g>
	<g>
		<g>
			<polygon class="st0" points="86.3,172.5 73.3,183.3 60.4,172.5 60.4,146.6 86.3,146.6 			"/>
			<polygon class="st0" points="60.4,220.2 73.3,209.4 86.3,220.2 86.3,246.1 60.4,246.1 			"/>
		</g>
		<g>
			<polygon class="st0" points="97.2,209.3 86.4,196.3 97.2,183.4 123.1,183.4 123.1,209.3 			"/>
			<polygon class="st0" points="49.5,183.4 60.3,196.3 49.5,209.3 23.5,209.3 23.5,183.4 			"/>
		</g>
	</g>
</g>
</svg>
