<?xml version="1.0" encoding="utf-8"?>
<!-- Generator: Adobe Illustrator 24.0.0, SVG Export Plug-In . SVG Version: 6.00 Build 0)  -->
<svg version="1.1" id="Layer_1" xmlns="http://www.w3.org/2000/svg" xmlns:xlink="http://www.w3.org/1999/xlink" x="0px" y="0px"
	 width="46px" height="50px" viewBox="0 0 46 50" style="enable-background:new 0 0 46 50;" xml:space="preserve">
<style type="text/css">
	.st0{fill:#FFFFFF;}
	.st1{fill:url(#SVGID_1_);}
	.st2{fill:url(#SVGID_2_);}
	.st3{fill:#1F294D;}
	.st4{fill:url(#SVGID_3_);}
	.st5{fill:#344178;}
</style>
<g>
	<path class="st0" d="M31.4,49.2c-5.6,1.1-11.3,1.1-16.9,0c-1.1-0.2-1.8-1.2-1.8-2.2v-4.3h20.6v4.3C33.3,48,32.5,49,31.4,49.2z"/>
	<path class="st0" d="M39.3,17c-0.4,0-0.7-0.2-0.7-0.5V5.8c0-0.3,0.3-0.5,0.7-0.5S40,5.6,40,5.8v10.7C40,16.8,39.7,17,39.3,17z"/>
	<linearGradient id="SVGID_1_" gradientUnits="userSpaceOnUse" x1="39.3215" y1="0" x2="39.3215" y2="6.5793">
		<stop  offset="0" style="stop-color:#FFCA28"/>
		<stop  offset="0.2217" style="stop-color:#FBC324"/>
		<stop  offset="0.5463" style="stop-color:#EFAF18"/>
		<stop  offset="0.9325" style="stop-color:#DD8F04"/>
		<stop  offset="1" style="stop-color:#D98900"/>
	</linearGradient>
	<circle class="st1" cx="39.3" cy="3.3" r="3.3"/>
	<g>
		<linearGradient id="SVGID_2_" gradientUnits="userSpaceOnUse" x1="22.9761" y1="11.1459" x2="22.9761" y2="45.6871">
			<stop  offset="0" style="stop-color:#FFCA28"/>
			<stop  offset="0.2217" style="stop-color:#FBC324"/>
			<stop  offset="0.5463" style="stop-color:#EFAF18"/>
			<stop  offset="0.9325" style="stop-color:#DD8F04"/>
			<stop  offset="1" style="stop-color:#D98900"/>
		</linearGradient>
		<path class="st2" d="M38.3,42.9c-10.2,3.7-20.4,3.7-30.7,0C3,41.3,0,36.9,0,32v-7.1c0-4.9,3-9.3,7.6-11c10.2-3.7,20.4-3.7,30.7,0
			c4.6,1.7,7.6,6.1,7.6,11V32C46,36.9,42.9,41.3,38.3,42.9z"/>
		<path class="st3" d="M35.9,17.6c-4.3-1.5-8.6-2.3-13-2.3c-4.3,0-8.7,0.8-13,2.3c-3.2,1.1-5.3,4.2-5.3,7.6v6.4
			c0,3.4,2.1,6.5,5.3,7.6c8.6,3.1,17.3,3.1,25.9,0c3.2-1.1,5.3-4.2,5.3-7.6v-6.4C41.2,21.8,39.1,18.8,35.9,17.6z"/>
		<linearGradient id="SVGID_3_" gradientUnits="userSpaceOnUse" x1="22.9762" y1="15.0968" x2="22.9762" y2="41.7361">
			<stop  offset="0" style="stop-color:#FFDC70"/>
			<stop  offset="0.1393" style="stop-color:#FCD56A"/>
			<stop  offset="0.3434" style="stop-color:#F3C159"/>
			<stop  offset="0.5872" style="stop-color:#E4A13D"/>
			<stop  offset="0.8595" style="stop-color:#D07516"/>
			<stop  offset="1" style="stop-color:#C45B00"/>
		</linearGradient>
		<path class="st4" d="M23,16.1c4.3,0,8.6,0.8,12.8,2.3c2.8,1,4.7,3.7,4.7,6.8v6.5c0,3-1.9,5.7-4.7,6.8c-4.2,1.5-8.6,2.3-12.8,2.3
			s-8.6-0.8-12.8-2.3c-2.8-1-4.7-3.7-4.7-6.8v-6.5c0-3,1.9-5.7,4.7-6.8C14.4,16.9,18.7,16.1,23,16.1 M23,15.1
			c-4.4,0-8.8,0.8-13.2,2.3c-3.2,1.2-5.4,4.3-5.4,7.7v6.5c0,3.5,2.2,6.6,5.4,7.7c4.4,1.6,8.8,2.3,13.2,2.3s8.8-0.8,13.2-2.3
			c3.2-1.2,5.4-4.3,5.4-7.7v-6.5c0-3.5-2.2-6.6-5.4-7.7C31.8,15.9,27.4,15.1,23,15.1L23,15.1z"/>
	</g>
	<g>
		<g>
			<ellipse class="st0" cx="13.5" cy="27.4" rx="2.8" ry="4.1"/>
			<ellipse class="st0" cx="32.5" cy="27.4" rx="2.8" ry="4.1"/>
		</g>
	</g>
	<g>
		<g>
			<path class="st5" d="M23,37.8c-2.1,0-3.8-1.7-3.8-3.8c0-0.3,0.2-0.5,0.5-0.5c0.3,0,0.5,0.2,0.5,0.5c0,1.5,1.2,2.7,2.7,2.7
				s2.7-1.2,2.7-2.7c0-0.3,0.2-0.5,0.5-0.5c0.3,0,0.5,0.2,0.5,0.5C26.7,36.1,25,37.8,23,37.8z"/>
		</g>
	</g>
</g>
</svg>
